<svg height="166" viewBox="0 0 250 166" width="250" xmlns="http://www.w3.org/2000/svg" xmlns:xlink="http://www.w3.org/1999/xlink"><linearGradient id="a" x1="50.02957%" x2="50.02957%" y1="99.99835%" y2="-.0045%"><stop offset="0" stop-color="#808080" stop-opacity=".25"/><stop offset=".54" stop-color="#808080" stop-opacity=".12"/><stop offset="1" stop-color="#808080" stop-opacity=".1"/></linearGradient><g fill="none" fill-rule="evenodd"><path d="m0 0h250v166h-250z" fill="#e6ecfe"/><path d="m201.5-3.5 52 47" stroke="#da0e0e" stroke-linecap="square" stroke-width="17"/><text fill="#fff" font-family="SourceSansPro-Bold, Source Sans Pro" font-size="16" font-weight="bold" transform="matrix(.7193398 .69465837 -.69465837 .7193398 78.609416 -153.126452)"><tspan x="210.869342" y="26.71934">BETA</tspan></text><g fill-rule="nonzero" transform="translate(16.082487 10)"><g fill="#6c63ff"><path d="m127.576469 24.0722412c-13.974806-.4854081-27.284789-5.0010581-39.9956586-9.9402316-12.7108696-4.93917342-25.2999839-10.4121025-38.9423784-13.02866542-8.7721814-1.68442446-18.8063665-1.92229381-25.8759059 2.78481198-6.8028374 4.52918724-9.0002311 12.34793364-10.1829972 19.60391594-.8890071 5.4593918-1.4108156 11.2030665 1.0242909 16.3143568 1.6910462 3.5467674 4.6943443 6.5288369 6.7641848 9.9266943 7.2260821 11.8257814 2.1258867 26.4054324-5.7128372 37.9527326-3.6719861 5.4149122-7.93535514 10.5822855-10.76858227 16.3472332-2.83322714 5.764947-4.13968112 12.37114-1.64852848 18.261791 2.45829803 5.828766 8.31028425 10.20711 14.66282005 13.287808 12.879008 6.244554 28.0675019 8.035343 42.8772014 9.048705 32.7850376 2.243321 65.7459439 1.272504 98.6179499.299754 12.163937-.361639 24.38392-.725212 36.350729-2.608827 6.646295-1.044305 13.507111-2.707457 18.332873-6.70869 6.124487-5.084216 7.643529-13.693926 3.538635-20.069985-6.884007-10.694452-25.918423-13.343891-30.728725-24.8273723-2.649628-6.3161082.071507-13.3535602 3.921295-19.2113348 8.25617-12.5703318 22.095693-23.5935458 22.824292-37.9604682.502482-9.8628757-6.151543-19.7489582-16.438902-24.41738603-10.784043-4.89275992-25.734824-4.27778061-33.691438 3.82331473-8.192394 8.3408987-22.588512 11.5492341-34.928318 11.1218428z" opacity=".1"/><path d="m174.917513 131.363723c-.755354-.319145-1.553216-.430041-2.343088-.325669-.962173.1361-.826315 2.048797.13958 1.958873.48307-.048734.960885-.163591 1.42558-.342681z"/><path d="m175.161984 132c.45785.702992.714921 1.469484.754866 2.250734.041665.952304-1.894519 1.020064-1.98275.069592-.038242-.475807-.010316-.953294.08333-1.424794z"/><path d="m177.917513 128.238931s-.437059-1.76613-3.109511-1.081032c-1.209254.309184-1.176432 2.542426.03455 2.778207h.051825c1.763784.315857 2.377048-.585003 3.023136-1.697175z"/><path d="m178.01672 129s1.787978.112982 1.899861 2.850633c.051639 1.232378-2.059079 1.606089-2.624949.462359 0-.017382-.015061-.033025-.023668-.050407-.789636-1.670402-.116186-2.43173.748756-3.262585z"/><path d="m179.917513 124.750979c-.21269-1.250054-.976349-2.265431-1.996343-2.654378-1.872914-.703005-2.862141 2.633075-1.03216 3.480942.757342.329386 1.56371.468644 2.368422.409022z"/><path d="m182.917513 119.539556s-.816416-2.0851-2.933693-2.50212c-2.24466-.444127-2.924042 3.198543-.706402 3.780286.995041.233538 2.023983.242766 3.022475.027106z"/><path d="m183.917513 113.983761c-.71144-1.010682-1.84709-1.71636-3.145913-1.954828-1.966195-.334098-2.628803 2.326246-.697999 2.781188 1.21259.267973 2.480752.25207 3.68465-.046205z"/><path d="m185.917513 110.006994c-.653237-.914965-1.669624-1.601563-2.865964-1.936041-2.047118-.534021-3.058394 2.103031-1.023559 2.67706 1.206275.340101 2.510321.335825 3.713471-.012176z"/><path d="m185.917513 105.041009s-.807303-1.823858-2.452182-2.788286c-1.832577-1.075259-3.578368 1.555529-1.816431 2.739675 1.085822.733043 2.476401 1.23859 4.101097.900263z"/><path d="m186.917513 99.930602s-.865692-1.841617-2.526406-2.7225594c-1.857015-.9723427-3.47258 1.7152124-1.72353 2.8742444 1.14444.756483 2.573518 1.246544 4.090931.655359z"/><path d="m185.917513 94.8845105c-.575382-.9697027-1.280526-1.8409161-2.092224-2.584967-1.154211-1.024518-2.615281.8199932-1.522094 1.9145799 1.009499 1.0055806 2.266577 1.8501925 3.565499 1.7820176z"/><path d="m185.784765 90.914526c-.796563-1.3035373-1.756259-2.5064864-2.857233-3.581451-1.09148-1.0221036-2.705521.5355823-1.685683 1.6128795 1.177871 1.2265243 2.766628 2.4980211 4.675664 3.0540455z"/><path d="m184.668799 84.7054718c-.570113-.8689325-1.234142-1.6750531-1.98057-2.40438-.954624-.9162105-2.393874.4625876-1.477655 1.4146576.972911 1.013031 2.231113 1.961515 3.706939 2.2842506z"/><path d="m183.902458 79.9782563c-.689394-.9333055-1.437166-1.8220278-2.23883-2.6608358-.898973-.927098-2.335609.3764319-1.488252 1.3530038.995753 1.1486551 2.273241 2.1660967 3.742137 2.3295757z"/><path d="m182.917513 75.5193766c-.502614-1.1090014-1.077324-2.1745775-1.719424-3.1880059-.53818-.8294629-1.659244.0581399-1.152014.9108588.663697 1.1182246 1.585309 2.2248212 2.795783 2.7577705z"/><path d="m182.917513 68.9035522s-.534305-.732714-1.297906-1.5843409c-.705196-.7851756-2.193462.0262308-1.540182.8393859.73548.9110834 1.656993 1.6875154 2.729929 1.8414028z"/><path d="m181.793226 65.5275478-.607839-3.0162143c-.161184-.7978995-1.359385-.6070974-1.262286.1927294.217502 1.6112173.776791 3.2320711 1.994412 4.2959371z"/><path d="m182.917513 56.3444349c-.102297-.2625732-.369786-.4010661-.622961-.3225389-.253175.0785273-.41221.3493152-.37038.6306431.117962.7972287.297134 1.5824336.535658 2.3474609z"/><path d="m180.492987 124.171269c1.016605-.385879 2.135203-.109117 2.923837.723411 1.429749 1.535195-.503987 4.110293-2.028457 2.694297-.61441-.599075-1.115072-1.3371-1.470854-2.168179z"/><path d="m182.554483 119.075666s2.120548-.47291 3.761352.945819c1.739575 1.504375-.665191 3.967603-2.497489 2.558183-.800631-.647092-1.447785-1.440078-1.900833-2.329175z"/><path d="m184.077792 114.852008c1.048527-.722309 2.357694-1.002129 3.625376-.774885 1.908093.367244 1.432978 3.145445-.488472 2.908572-1.198624-.167376-2.333283-.625502-3.297183-1.331259z"/><path d="m186.077995 109.955277c.973819-.682724 2.176751-1.018066 3.391929-.945569 2.072404.168389 1.850502 3.10872-.223884 2.986592-1.22802-.071391-2.397171-.516617-3.328527-1.267544z"/><path d="m185.917513 105.686359s1.078586-1.809631 2.800436-2.54955c1.91036-.822367 3.136644 2.291635 1.280699 3.249302-1.166038.598277-2.571115.900587-4.063645.243116z"/><path d="m185.917513 99.6256991s1.074628-1.810513 2.792883-2.5017998c1.915558-.7715254 3.139599 2.2734283 1.298748 3.2506937-1.204886.637795-2.651132.954634-4.041827.127559z"/><path d="m185.917513 94.8260529c.409398-1.1817437.980173-2.2912654 1.693525-3.2920209 1.019964-1.3892743 3.004083.2070453 2.057248 1.6563627-.869856 1.3313016-2.03223 2.5507986-3.464029 2.8096053z"/><path d="m185.917513 90.904886c.395144-1.5040787.981187-2.9544774 1.744618-4.3177587.771327-1.2999254 2.805999-.2236206 2.114168 1.1181031-.790665 1.5360855-1.976661 3.2184648-3.682606 4.2947696z"/><path d="m184.917513 84.5714399c.463634-1.0839937 1.058362-2.1176434 1.773198-3.0818595.884453-1.1725528 2.844416-.0234511 2.0351 1.1881868-.88016 1.3210761-2.120969 2.6499692-3.784684 3.3222328z"/><path d="m183.917513 80.2446658c.248553-.9160735.570864-1.8190504.965022-2.7035757.445737-.9845391 2.364638-.5087653 1.985761.4931378-.445737 1.1772796-1.210178 2.3528227-2.522875 2.9657721z"/><path d="m182.917513 75.6017617c.33312-1.0810443.765873-2.1407354 1.294685-3.1703233.448824-.8449579 2.045603-.330711 1.639935.5280986-.526505 1.1254561-1.372367 2.2993934-2.714524 3.040463z"/><path d="m181.917513 69.8132438s.169314-.9844917.477321-2.1753757c.284591-1.0980075 1.732765-.6666474 1.496806.4458076-.262977 1.2383542-.720484 2.4044712-1.513017 2.9163243z"/><path d="m182.307086 65.4815745 1.197332-3.036851c.316941-.809827 1.637528-.4170609 1.380014.4049134-.51723 1.6398996-1.415229 3.2393078-2.966919 4.1503631z"/><path d="m183.648078 56.5143474s.162899-.1453348.412039-.3740234c.507862-.4702008 1.170958.3505134.691843.8549106-.834091.8455285-1.793044 1.5237822-2.834447 2.0047654z"/><path d="m184.099577 55c.533289-1.1930269 1.12744-2.3522211 1.779633-3.4720831.07737-.1597521.034358-.3576124-.100433-.4619957-.13479-.1043832-.319374-.082777-.430997.0504497-.524868.7871492-1.039896 1.9391188-1.430267 3.6320289z"/></g><path d="m182.468873 71 .239718-.0234032c-1.033267-9.0901999-.597228-14.6952706 1.208922-15.78157l-.130192-.1950268c-1.91361 1.156509-2.368247 6.6874695-1.318448 16z" fill="#444053"/><path d="m185.558592 92 .358921-.0503432c-.134855-.8345362-.290457-1.6826263-.464731-2.5171625-1.510373-7.3249428-2.684647-14.0961099-3.271784-19.2388664l-.263485-.1936279c.589211 5.152438 1.659751 12.1578947 3.180498 19.4925189.170124.8287274.325726 1.6748812.460581 2.5074811z" fill="#444053"/><path d="m170.192239 137c.050659-.040368 5.241229-3.957961 9.798566-11.472127 2.671089-4.397287 4.617744-9.185011 5.767301-14.184455 1.439876-6.24931 1.480793-13.5270369.442289-20.343418l-.303952.2402842c2.338095 15.2974508-2.121821 27.1751778-6.28363 34.0415378-4.512523 7.444964-9.642693 11.32219-9.6953 11.360635z" fill="#444053"/><ellipse cx="38.917513" cy="134.5" fill="#6c63ff" rx="13" ry="2.5"/><g fill="#3f3d56"><ellipse cx="38.417513" cy="134" rx="1.5" ry="2"/><ellipse cx="38.417513" cy="131" rx="1.5" ry="2"/><ellipse cx="38.417513" cy="129" rx="1.5" ry="2"/><ellipse cx="38.417513" cy="127" rx="1.5" ry="2"/><ellipse cx="38.417513" cy="124" rx="1.5" ry="2"/><ellipse cx="38.417513" cy="122" rx="1.5" ry="2"/><ellipse cx="38.417513" cy="119" rx="1.5" ry="2"/></g><path d="m43.4159572 102.579498c.2000623-.259531.3819928-.533159.5444394-.81885l-3.8355661-.64352 4.1445213.030828c.8047582-1.7889201.8531415-3.8379521.133755-5.6645161l-5.5649618 2.9517136 5.131671-3.853412c-1.307879-2.3217845-3.7750152-3.7010964-6.3920126-3.5736083-2.6169974.127488-4.944776 1.7403859-6.0309561 4.178798-1.0861801 2.438412-.7485223 5.2932208.8748252 7.3964208-.3102599.404548-.5774.84182-.7968784 1.304379l4.9790772 2.645368-5.3049873-1.822664c-.7564624 2.289768-.3313056 4.815366 1.130324 6.71457-2.2559719 2.931746-1.9294986 7.14454.7498659 9.676228 2.6793644 2.531689 6.8114207 2.531689 9.4907852 0 2.6793645-2.531688 3.0058378-6.744482.7498659-9.676228 1.9966666-2.593492 1.9966666-6.248161 0-8.841653z" fill="#6c63ff"/><path d="m30.919507 107.104905c-.001597 1.593404.5259018 3.140828 1.4972828 4.392296-2.2582152 2.91346-1.9314173 7.099977.7506115 9.615875 2.6820288 2.515899 6.818194 2.515899 9.5002228 0 2.6820287-2.515898 3.0088267-6.702415.7506115-9.615875.9391018-1.208169-12.4987286-5.190721-12.4987286-4.392296z" fill="#000" opacity=".1"/><path d="m45.9175127 51v85.031567c0 .787277.3128419 1.54231.869704 2.098999.556862.556689 1.3121291.869434 2.099651.869434h122.0612903c1.639929 0 2.969355-1.329013 2.969355-2.968433v-85.031567z" fill="#fff"/><rect fill="#000" height="18" opacity=".1" rx="8.65" width="31" x="55.917513" y="58"/><rect fill="#000" height="18" opacity=".1" rx="8.65" width="31" x="94.917513" y="58"/><rect fill="#6c63ff" height="17" rx="8.5" width="30" x="55.917513" y="59"/><rect fill="#444053" height="17" opacity=".1" rx="8.5" transform="matrix(-1 0 0 -1 297.835026 135)" width="30" x="133.917513" y="59"/><rect fill="#6c63ff" height="17" rx="8.5" transform="matrix(-1 0 0 -1 219.835026 135)" width="30" x="94.917513" y="59"/><rect fill="#444053" height="17" opacity=".1" rx="8.5" width="30" x="55.917513" y="84"/><rect fill="#444053" height="17" opacity=".1" rx="8.5" transform="matrix(-1 0 0 -1 297.835026 185)" width="30" x="133.917513" y="84"/><rect fill="#444053" height="17" opacity=".1" rx="8.5" transform="matrix(-1 0 0 -1 219.835026 185)" width="30" x="94.917513" y="84"/><rect fill="#444053" height="17" opacity=".1" rx="8.5" width="30" x="55.917513" y="109"/><rect fill="#444053" height="17" opacity=".1" rx="8.5" transform="matrix(-1 0 0 -1 297.835026 235)" width="30" x="133.917513" y="109"/><rect fill="#444053" height="17" opacity=".1" rx="8.5" transform="matrix(-1 0 0 -1 219.835026 235)" width="30" x="94.917513" y="109"/><path d="m45.9175127 35.902801v15.097199h128.0000003v-15.097199c0-.7696976-.312106-1.5080413-.869024-2.0524763-.556917-.5444349-1.312476-.8503247-2.100332-.8503247h-122.0612887c-.7878556 0-1.5434147.3058898-2.1003321.8503247-.5569175.544435-.8690235 1.2827787-.8690235 2.0524763zm31.6769722 4.4661371c-1.3091785 0-2.3704773-1.0368389-2.3704773-2.3158445 0-1.2790055 1.0612988-2.3158444 2.3704773-2.3158444s2.3704773 1.0368389 2.3704773 2.3158444c0 1.2790056-1.0612988 2.3158445-2.3704773 2.3158445zm64.6460551.0000031c-1.309178 0-2.370477-1.036842-2.370477-2.3158476 0-1.2790055 1.061299-2.3158444 2.370477-2.3158444 1.309179 0 2.370478 1.0368389 2.370478 2.3158444 0 .6148526-.250274 1.2044677-.695658 1.6388811s-1.049314.6779624-1.678671.6769665z" fill="#6c63ff"/><path d="m77.9196175 35.0000007c-1.213556-.0008333-2.3080813.7295534-2.7730671 1.8504937-.4649859 1.1209403-.2088316 2.4116128.6489873 3.2700217.8578189.8584088 2.1483149 1.1154504 3.2695746.6512354 1.1212597-.4642151 1.8524004-1.558238 1.8524004-2.7717944.0005456-.7954481-.3150614-1.5585039-.8773349-2.1211641-.5622734-.5626601-1.325112-.8787923-2.1205603-.8787923zm0 5.5380632c-1.4017576 0-2.5381067-1.1363491-2.5381067-2.5381068s1.1363491-2.5381068 2.5381067-2.5381068c1.4017577 0 2.5381068 1.1363491 2.5381068 2.5381068s-1.1363491 2.5381068-2.5381068 2.5381068z" fill="#000" opacity=".1"/><path d="m141.917513 35c-1.656855 0-3 1.3431458-3 3s1.343145 3 3 3c1.656854 0 3-1.3431458 3-3s-1.343146-3-3-3zm0 5.5381443c-1.401779 0-2.538145-1.1363659-2.538145-2.5381443s1.136366-2.5381443 2.538145-2.5381443c1.401778 0 2.538144 1.1363659 2.538144 2.5381443s-1.136366 2.5381443-2.538144 2.5381443z" fill="#000" opacity=".1"/><circle cx="200.917513" cy="81" fill="#6c63ff" opacity=".1" r="3"/><circle cx="210.917513" cy="68" fill="#6c63ff" opacity=".1" r="5"/><circle cx="204.917513" cy="92" fill="#6c63ff" opacity=".1" r="5"/><circle cx="7.917513" cy="67" fill="#6c63ff" opacity=".1" r="7"/><path d="m179.032556 143.02665c-.433664-.331673-.909004-.603018-1.413409-.806835-.038363-.020147-.080654-.031382-.123816-.032893-1.043736-.76093-2.019031-1.614315-2.914441-2.550141.190487-.154789.365734-.305708.552411-.454692-1.142918-.553369-1.777238-1.8207-2.394414-2.9642-1.631809-3.039892-3.782133-5.761276-6.350814-8.037395-.06286-.245727-.430499-.193486-.6267-.352144-.130229-.127158-.183309-.315495-.139055-.493389.030478-.178007.110482-.342469.154294-.516607.104767-.408254.013334-.837793-.032383-1.257657-.045716-.419863-.026668-.888099.247633-1.201546.087623-.102547.20001-.181876.285729-.286358.182155-.248929.251421-.56483.190486-.868751-.020707-.301345-.084888-.597966-.190486-.88036.933383-2.579809 1.866131-5.164133 2.798244-7.752971.653368-1.807157 1.312451-3.65301 1.379121-5.580127.053336-1.547886-.339065-3.155752-1.261019-4.337949.167628-.040632.335256-.083199.500979-.131571-1.089582-1.466621-1.207684-3.409217-1.236256-5.2570056-.015239-.9209918-.046352-1.8426286-.093339-2.7649104.316208.1412446.636225.2670103.963861.3753623l.304778.0948079c.494889.1471501.999773.2570892 1.510557.3289257.224774.0328926.453357.0580457.680036.0735246-.327636-.8332784-.654638-1.6678466-.981005-2.5037048-.169748-.3698859-.272968-.7676401-.304778-1.174458v-.0773943c0-.0464366 0-.0928731.009525-.1393097.01301-.1107812.037921-.2197825.074289-.325056.016869-.0520272.036584-.1030578.059051-.1528536.067864-.1524514.149487-.2981885.243823-.4353428.068575-.1064172.144769-.2089646.220964-.3134468.283893-.3364794.514594-.71572.683846-1.1241518.06696-.2067811.102293-.4227726.104767-.6404377.003683-.2207113-.01547-.4412051-.057146-.6578513-.026668-.1431794-.060955-.2882936-.099053-.4276033-.024763-.0870686-.051431-.1741371-.078099-.2592708l-.022858-.0696549c-.020954-.0657851-.041907-.1296354-.064766-.1934857l-.022858-.0657851c-.024763-.0696548-.049527-.1373748-.076195-.2070297l-.015239-.040632c-.363829-.9500147-.847664-1.8555277-1.142918-2.8326304-.077622-.2600688-.141212-.5242472-.190486-.7913564-.013334-.06772-.022858-.1373748-.034287-.2050948-.01143-.06772-.017144-.1160914-.024764-.1741371-.007619-.0580457-.017143-.13544-.024763-.20316l-.017144-.1934857c0-.0619154-.009524-.1238308-.013334-.1934857 0-.1180262-.011429-.2360525-.013334-.3540788 0-.0425668 0-.0831988 0-.1257657 0-.0890034 0-.1799416 0-.2689451 0-.0483714 0-.0967428 0-.1431794 0-.0890034.013334-.1780068.020954-.2650753 0-.0425669 0-.0851337.013334-.1257657.012699-.1289905.029843-.2579809.051431-.3869714.019049-.1141566.040002-.230248.062861-.3463394.068996-.3177611.104752-.6420365.106672-.9674284 0-.0619154 0-.1257657-.013334-.1934857s-.015239-.1044822-.024763-.1547885c-.000916-.0154649-.000916-.0309717 0-.0464366 0-.0348274-.017144-.0696548-.024764-.1044822-.007619-.0348275-.009524-.0328926-.015238-.0483715-.005715-.0154788-.020954-.0677199-.032383-.1006125s-.009524-.0290229-.015239-.0445017c-.005715-.0154789-.026668-.0696549-.041907-.1025474l-.013334-.0348275c-.019049-.0425668-.040002-.0831988-.060956-.1238308-.073821-.141184-.159206-.2758089-.255251-.4024502-.6267-.8358582-1.668661-1.472426-2.242025-2.3934179-.334765-.5968924-.552745-1.2539036-.641938-1.9348568-.028573-.1547886-.053337-.3095771-.080005-.4624308s-.049526-.3037725-.076194-.4546913c-.017144-.0928732-.034288-.1934857-.053336-.2786194l-.01143-.0599806c-.015239-.0735245-.030477-.148984-.047621-.2225085l-.011429-.0522412c-.017144-.0773942-.034288-.1547885-.053337-.2321828l-.011429-.040632c-.019048-.081264-.040002-.1625279-.060955-.2437919-.000863-.0096545-.000863-.0193684 0-.0290229-.022859-.0851337-.047622-.1702674-.072385-.2554011v-.0174137c-.026668-.0890034-.053336-.176072-.081909-.2631405-.028573-.0890034-.059051-.1799417-.091434-.2689451-.034287-.0909383-.06667-.1818766-.102862-.27088-.239583-.6233616-.564028-1.2095243-.963861-1.7413711-.872428-1.1376958-2.221071-1.9542054-3.61924-1.9000294-.750517.0290228-1.470555.2960331-2.177259.5611085l-1.834384.6868741.512409-.2399222c-.533362.0483714-1.078153.0986777-1.560083.3385999-.481931.2399223-.889572.7100925-.90481 1.2595918-.009525.3192514.114291.6365679.074289.9538844-.06667.5243462-.540981.8803599-.786708 1.3447255-.144011.2797894-.209886.5942778-.190487.9093827v.0154789.108352c-.000925.0102978-.000925.0206599 0 .0309577v.0619154c-.761945-.3366651-1.52389-.6868742-2.285836-1.0622364-1.259114-.6288285-2.533468-1.3679438-3.318272-2.5598156-.251442-.3869713-.445738-.8049004-.695275-1.1880021-.286301-.4122984-.604807-.800523-.952431-1.160914l-2.337268-2.5694899c-.179057.3424697.051432.7468547.232394 1.0873895.192177.3571803.337544.7383541.432404 1.1338261.046097.1288628.042009.270742-.011429.3966457-.085068.1037962-.195394.1831747-.320018.2302479-.438993.2806612-.636862.8264175-.48193 1.3292467.168733.4898816.579205.8531372 1.080058.9558192.164997.019089.326938.059399.48193.1199612.28192.1412445.41526.4701702.617176.715897.367638.4488868.952431.6172193 1.510556.7642684.864808 1.013865 1.763904 1.9851631 2.628712 2.9990281 1.308641 1.5343415 2.64776 3.0957709 4.354517 4.1328542.177152.1083519.358114.2089645.540981.3018376 0 .0309577 0 .0619154-.009524.0928732-.047775.2286966-.018946.467051.081909.6771998.152389.2457269.466692.3192514.746707.3695577l1.291497.2341177c-.011445.1700543-.032432.3393068-.062861.5069325-.017143.1025474-.038097.2031599-.057145.3057073l-.022859.1315703v.0193486c0 .0058045 0 .0696548-.013334.1064171s0 .0251531 0 .0367623v.0928731.0386971.1257657c.043812.5146719.380973.9403404.718134 1.3331164l.180962.2225085c-.287167.3672469-.488434.7959666-.588603 1.2537872-.057434.2871678-.085521.579592-.083814.8726205-.172719.16736-.303369.3743835-.380973.6036753-.090289.3170613-.123838.6480056-.099053.9771027v.0232183.363753c-.022116.462297.053219.924061.220964 1.3543998.017144.0348274.036193.0657851.053337.0986777-.28573.5688479-.761946 1.0119301-1.102916 1.5478855-.706523 1.2190292-.585421 2.7570277.302873 3.8464953.260966.3057074.596222.5998056.6267 1.0061256-.004549.1842433-.022375.367901-.053336.5494993-.030478.4372776.167628.851337.2743 1.2750706.089529.352144.093339.7739428-.104767 1.0564319-.200396.2968559-.292677.6553694-.260967 1.0138654.097148.547564-.125721 1.095129-.163818 1.650432-.017144.237988 0 .479845-.020953.717832-.027446.228047-.073966.453305-.139055.67333 0 .023219-.011429.048372-.019049.073525-.470501.210899-.937193.429538-1.38674.683004-.242776.109862-.44348.297416-.571459.534021-.075991.237671-.086531.491927-.030478.735246l.405736 2.867457-.07048-.030957c.031747.469525.064765.940985.099053 1.41438.024763.357948.057145.73718.26668 1.023539.106606.115553.202865.240522.287635.373428.160008.328925-.030478.712027-.171438 1.048692s-.190486.814575.120007.996451c.161916.11442.336442.209226.520027.282489-.380972 1.613671-.030478 3.304736.323827 4.924211.270491 1.238308.541616 2.475327.813377 3.711055.106277.52497.1662 1.058528.179057 1.594322v.232183c.038218.736843.166184 1.466036.380972 2.17091.42288 1.447272.017144 3.184774.150485 4.761682.088638.758512.237707 1.508472.445738 2.242499.920049 3.707186 1.741045 7.340847 2.057252 11.152515.338293.43754.797173.762871 1.318165.934536-.038097.468235.013334 1.00419 0 1.277005-.000529.225905-.035221.450387-.102862.665591-.161914.429538-.571459.710092-.996244.861011-.13334.046437-.268585.083199-.405736.116092l.152389-.131571c-.870884-.192217-1.781253-.029648-2.535373.452757-.239248.123831-.419682.33986-.500979.599806-.031337.245791.031392.494425.175248.694613.419366.623537 1.044257 1.074367 1.761998 1.271201.709267.189704 1.438243.292978 2.171544.307642l1.344834.079329c-.094468.161363-.05704.368802.087624.48565.144143.106925.315252.170005.493359.181876.549522.082816 1.107426.091274 1.659136.025153.13836-.00402.271839-.052828.380973-.13931.051288-.047307.080533-.114408.080533-.184778 0-.070371-.029245-.137472-.080533-.184779.165136-.005356.310222-.112814.365734-.27088.052724-.157273.069657-.324641.049526-.489519-.036192-.636568-.091433-1.561429-.417165-2.128342-.115766-.212018-.356488-.319635-.588603-.263141-.210719-1.13295-.338062-2.280269-.380972-3.432436.335616-.127875.662675-.277821.979099-.448887-.935288-1.534341-.952431-3.482742-.666702-5.26668.113352-.563222.196652-1.132254.249537-1.704609.062861-1.141565-.106672-2.43405-.729562-3.37826 1.13548.733461 2.140258 1.657235 2.971586 2.732018 1.316261 1.741371 2.118208 3.850365 3.731628 5.301508.212074-.210255.426689-.419219.643843-.626894.340336.585617.662258 1.183488.965766 1.793612.238112.448728.425961.923149.56003 1.414381.148579.751466.165988 1.523608.051431 2.281196-.044447.40245-.098418.802965-.161913 1.201546-.025607.170538-.064461.338751-.116197.503063-.000725-.052433-.013097-.104022-.036192-.150919-.100958-.179942-.380973-.098678-.533362.025153-.271406.206865-.495584.470874-.657178.773943-.088901.147995-.130183.320454-.118101.493388.049935.210722.189539.387974.380972.483714.706705.419864 1.594371.116092 2.352507-.193485.209439-.076546.408994-.178545.594317-.303773.380973-.278619.588603-.73718.96767-1.00806.202353-.112774.397656-.238133.584794-.375362.352399-.326991.380972-.878425.638129-1.292485.426689-.713962 1.381026-.897773 1.754379-1.654302.432404-.835858-.072385-1.890355-.723848-2.435985z" fill="url(#a)"/><path d="m162.876399 146.192492c-.001113.228139-.03481.454705-.099886.67159-.152554.432583-.544836.715045-.948014.867141-.403178.152095-.831782.197526-1.242225.329869-.180279.044647-.347149.138452-.484903.272586-.363224.395053-.14529 1.106148.279682 1.400463.424972.294314.966175.284438 1.471056.246908 1.071305-.067833 2.135578-.232345 3.181838-.491841.377753-.096788.81907-.286413.879001-.703194.011341-.132522.00151-.266178-.029057-.395053-.257733-1.413964-.394526-2.850848-.408627-4.292249 0-.094812-2.106697-.156046-2.302838-.017777-.4395.314067-.272417 1.625642-.296027 2.111557z" fill="#a1616a"/><path d="m173.329332 140.995787c.356168.621607.690694 1.255593 1.003578 1.90196.231755.44656.414718.919368.545383 1.409365.143772.748747.160728 1.518389.050086 2.27336-.043284.40007-.096462.799488-.159534 1.198254-.061216.390948-.159533.834673-.476746 1.059468.286398.178929.634366.211282.946072.087963.306095-.124864.588265-.306973.832914-.537553 1.589772-1.381999 2.782565-3.389514 2.841926-5.561228.016766-.169628-.01352-.340739-.087187-.492594-.074957-.106271-.169624-.195386-.278256-.261935-1.186269-.851406-2.288159-1.826526-3.288991-2.910604-.058818-.083375-.144628-.141105-.241156-.162243-.075962.000467-.150364.022771-.215185.064506-.610309.322532-1.630582.781895-1.884723 1.514922.173717.092239.317174.237278.411819.416359z" fill="#a1616a"/><path d="m165.915313 148.801114c-1.453575.559957-3.028282.761542-4.60097.953794-.201885.022398-.417903.03733-.551147-.093326-.108279-.124765-.122705-.298159-.036339-.436767.085705-.134654.200469-.25156.337148-.34344l1.043748-.808205c-.910062-.178518-1.859519-.027539-2.652775.421834-.249296.114845-.439412.31611-.52894.559957-.033622.234798.032999.47247.185735.662616.446699.595208 1.107976 1.023968 1.865422 1.209508.751541.180099 1.523259.278446 2.299475.293044l1.413198.074661c-.100781.154077-.059883.353599.094887.462898.153431.1036.335372.165062.524902.17732.581896.078369 1.172391.085899 1.756403.022398.146622-.002278.288416-.048817.403771-.132523.05407-.044621.084985-.108446.084985-.175453s-.030915-.130833-.084985-.175453c.174504-.004874.328127-.107698.387621-.259447.053947-.149529.071863-.308158.05249-.464765-.038358-.604754-.096905-1.493219-.442129-2.021445-.345225-.528227-1.063937-.113858-1.5525.072794z" fill="#3f3d56"/><path d="m179.957418 142.80895c-.468932-.318801-.981843-.579273-1.52536-.774624-.043956-.030956-.100966-.041728-.154691-.02923-.053725.012497-.098236.046886-.120778.093311-.970833 1.207862-1.729021 2.547854-2.246924 3.971127-.293971.810434-.52627 1.673641-1.122434 2.329527-.078119.086698-.205575.17528-.312473.124392-.154181-.07162-.059617-.299672-.145958-.437257-.106898-.173396-.398813-.094237-.573551.024501-.293806.200091-.535368.457611-.707175.753892-.098432.140407-.14326.306791-.127456.473068.051949.201433.198816.371298.40087.463643.762679.405218 1.720654.113084 2.536783-.188473.225418-.072873.440156-.170993.639336-.292133.411148-.265747.635223-.708659 1.044316-.966867.218315-.108565.429089-.229419.631112-.361868.378256-.31475.411148-.844359.686617-1.243922.460486-.684157 1.490412-.861322 1.893337-1.588828.450208-.812319-.092508-1.826304-.795571-2.350259z" fill="#3f3d56"/><path d="m168.930656 103.993549c1.553513 1.146568 2.205752 3.185127 2.136575 5.093482s-.751062 3.738977-1.427018 5.528789c-.968476 2.561316-1.935633 5.121984-2.901473 7.682004.107684.280822.174232.575266.197648.874501.061937.300933-.009995.613543-.197648.858954-.090918.102997-.197648.182674-.296472.283727-.284613.310934-.302401.777334-.256942 1.191265.045459.41393.142306.841464.0336 1.245677-.045459.172957-.128471.336197-.160095.511098-.044909.176872.010175.363836.144283.48972.197648.155467.592944.10494.650262.3498 2.657582 2.250646 4.88627 4.948661 6.581678 7.967675.640379 1.132964 1.286688 2.388359 2.482459 2.936379-1.165122.907486-2.281991 1.873305-3.346181 2.893627-1.670125-1.438068-2.502223-3.53104-3.865994-5.247005-.863264-1.06718-1.904505-1.982538-3.079356-2.707066.646309.934744.822216 2.217345.756992 3.346423-.054736.567163-.141173 1.130935-.258919 1.688758-.306355 1.768435-.278684 3.692337.691768 5.219799-1.035676.528587-2.225517.921141-3.381757.76373-.725508-.101442-1.384328-.4712-1.84208-1.033854-.328095-3.777844-1.185887-7.384674-2.132621-11.051748-.217038-.731574-.371088-1.479806-.46052-2.236778-.138354-1.554669.282636-3.284237-.158119-4.718418-.222059-.697517-.354847-1.419523-.395296-2.149329 0-.077734 0-.153524 0-.231257-.013459-.530425-.075642-1.058569-.185789-1.577988l-.84198-3.676791c-.367625-1.607138-.735251-3.282293-.337978-4.881658-.189483-.071977-.369879-.165227-.537603-.277897-.322166-.18073-.270777-.65296-.124518-.987214.14626-.334254.341931-.713204.177883-1.039684-.08751-.132594-.187427-.256859-.298448-.371177-.217413-.283727-.251013-.658791-.276707-1.012478l-.102777-1.403088c.59664.232584 1.093596.660128 1.407253 1.210698-.778733-1.185435-.395296-2.876136.17986-4.170398.219544-.814243.958006-1.389253 1.814409-1.412804 3.168297-.532474 7.038244-1.851999 9.611621.050526z" fill="#3f3d56"/><path d="m167.917513 113s-1.506372.99961-1.506372 1.748368c0 .748757-.382328 7.487573-.382328 7.487573v4.750999s.250424 2.497125 0 3.120456c-.250425.623331 0 3.494835 0 3.869213 0 .374379.382328-3.869213.382328-3.869213v-4.500146l.382328-10.235551z" fill="#000" opacity=".1"/><path d="m158.917513 77.7062675-.894956-.3348924c-1.828908-.7034612-3.659765-1.4087932-5.430179-2.2338634-1.286865-.6005613-2.591278-1.3096352-3.392644-2.4415342-.257372-.3741814-.456252-.767072-.711675-1.1356407-.293523-.3942369-.619534-.765243-.974897-1.1094481l-2.390449-2.4508887c-.183281.3274088.050695.7128157.237875 1.0364827.195873.3411375.344656.705279.442604 1.0832554.045973.1217392.041083.2558243-.013649.3741815-.086079.1001351-.198502.1763576-.325616.220767-.447921.2635096-.651337.7858047-.493298 1.2666043.174085.4699389.59354.8169567 1.103584.9130028.168643.0187323.334289.0570548.493298.1141254.28857.1365762.425056.4490178.631734.6828812.37631.4284378.974897.5912067 1.544237.7296539.885207.9672591 1.803561 1.8933582 2.688768 2.8606174 1.337559 1.4630495 2.706315 2.9522918 4.453331 3.9438727.620398.3639052 1.299847.6257007 2.010239.7745557.234932-1.4525137.576343-2.8873182 1.021693-4.2937325z" fill="#a1616a"/><path d="m158.917513 77.7062675-.894956-.3348924c-1.828908-.7034612-3.659765-1.4087932-5.430179-2.2338634-1.286865-.6005613-2.591278-1.3096352-3.392644-2.4415342-.257372-.3741814-.456252-.767072-.711675-1.1356407-.293523-.3942369-.619534-.765243-.974897-1.1094481l-2.390449-2.4508887c-.183281.3274088.050695.7128157.237875 1.0364827.195873.3411375.344656.705279.442604 1.0832554.045973.1217392.041083.2558243-.013649.3741815-.086079.1001351-.198502.1763576-.325616.220767-.447921.2635096-.651337.7858047-.493298 1.2666043.174085.4699389.59354.8169567 1.103584.9130028.168643.0187323.334289.0570548.493298.1141254.28857.1365762.425056.4490178.631734.6828812.37631.4284378.974897.5912067 1.544237.7296539.885207.9672591 1.803561 1.8933582 2.688768 2.8606174 1.337559 1.4630495 2.706315 2.9522918 4.453331 3.9438727.620398.3639052 1.299847.6257007 2.010239.7745557.234932-1.4525137.576343-2.8873182 1.021693-4.2937325z" fill="#000" opacity=".15"/><path d="m157.730551 82.4078996c-.267485-.0512597-.567723-.1222347-.713293-.3706471-.096343-.2106085-.123926-.4503892-.078244-.680177.144733-1.4859523.450097-2.948335.909813-4.3570755.405777.8142408 1.204593 1.2893789 1.961558 1.7172004.675747.4070675 1.380352.7551575 2.107128 1.0409664-.181963-.0630889-.627772 2.9691203-.87888 3.1544439-.316615.2405263-1.080858-.0847757-1.432046-.1498361z" fill="#6c63ff"/><circle cx="159.917513" cy="77" fill="#a1616a" r="4"/><path d="m158.917513 80.7226387s2.709899 2.2133622 1.548514 3.688937c-1.161386 1.4755748-1.80791 2.4605397-.259396 2.5841285 1.548514.1235887 6.710882-2.4605398 6.710882-2.4605398s-4.77524-3.688937-4.000983-5.9022992-3.999017 2.0897735-3.999017 2.0897735z" fill="#fbbebe"/><path d="m161.049476 83.8707067c-1.135134.2796677-2.01948 1.1917245-2.285654 2.3572758-.293518 1.374754.329498 2.9126143-.257539 4.1786307-.276475.6019403-.789658 1.0524246-1.136199 1.6174718-.699395 1.2055168-.579402 2.7326099.299199 3.8077578.259432.3029119.592718.596115.623016.9961141-.004432.1823312-.022155.3640674-.053022.543688-.030299.4330086.166642.8446581.272687 1.2640746.089003.347572.09279.7650467-.104151 1.0446577-.19864.293002-.289861.6485798-.257539 1.0038808.094684.543688-.126875 1.085434-.164749 1.634948-.017043.236892 0 .473785-.02083.710678-.02757.225462-.073172.448218-.136344.666017l-.333285 1.260192c1.806557.792231 3.726734 1.077667 5.680997 1.040774 1.749747-.034952 3.474876-.405825 5.18675-.776697.520758-.112622 1.041516-.225243 1.5547-.370873-1.083177-1.452424-1.198691-3.376691-1.228989-5.2038712-.047202-3.0463302-.269145-6.0871748-.664677-9.1067741.524545-1.0155315.757466-2.1475676.973344-3.2757202.096926-.4544396.137645-.9195879.121195-1.3844627-.053023-.9708714-.488566-1.8931993-.914641-2.7728088-.390095-.8038816-.812382-1.6504815-1.681575-1.9980534-.426634-.1843615-.915922-.1292689-1.293373.1456307-.657102.5087366-.462055 1.3864044-.630591 2.1359171-.221559.9708715-1.094539 1.6679572-2.024329 1.9417429-.693913.186466-1.412891.2553356-2.12848.203883-.142952-.0083713-.269079-.0986924-.325966-.2334285-.056886-.134736-.034806-.2908492.057066-.4034631.30488-.3456303.611654-.6970857.872979-1.027182z" fill="#6c63ff"/><path d="m164.638562 100c-1.542628 1.235606-3.103101 2.482868-4.883666 3.357118-1.044942.512893-2.155316.891734-3.172499 1.443482-.251508.1083-.460276.293762-.594843.528436-.080984.234965-.091988.487671-.031725.728541l.452081 3.054044c.124917.827623.935887 1.359944 1.586249 1.888379-.03569-.277817-.093192-.493465.041639-.740198.046743-.077116.09771-.151698.152677-.223419.277594-.411869.287508-.946132.220092-1.435712s-.198281-.971388-.172505-1.472624c-.011346-.168738.068422-.330952.210178-.427411 2.214801-1.043271 4.600124-1.843695 6.838719-2.834511.592299-.234589 1.15034-.544884 1.659613-.922819.511745-.384632.856009-.944737.963647-1.56782.020752-.081614.006417-.167995-.039656-.238962-.04492-.048264-.103661-.08212-.168539-.097139-1.003303-.35747-2.062125-.6858-3.061462-1.039385z" fill="#a1616a"/><path d="m159.870577 87.0104943c-.770041.1283979-1.579982.5234682-1.841317 1.2543484-.094005.3204229-.129141.6549563-.103736.987676-.023911.4676984.055752.9349171.233406 1.3689188.131261.2395407.287735.4646656.466813.6716197 1.843312 2.3388166 2.768958 5.2761648 4.564392 7.6525132.159594.2093873.450853.4819858.361082.7289048-.03262.0640586-.061267.1300259-.085782.1975352-.01658.1297026.032716.2591276.131665.3456866.095713.086912.170091.194343.217447.314081.033914.124447-.049873.286426-.179543.276549.215452.659768.875772 1.044961 1.502179 1.357067 1.041352.519517 2.194419.928415 3.353472.81582.217447-.863229.520676-1.839052.398985-2.718084-.127353-.6712894-.352469-1.320712-.6683-1.9279434l-.780017-1.6869505c-.66431-1.4400315-1.334605-2.8899398-2.260251-4.1798446-.333479-.4083475-.614268-.8562528-.835875-1.3333625-.237396-.6103837-.889737-1.0390351-1.284732-1.5625033-.586509-.7901408-1.196956-1.5802815-1.982957-2.1511582-.315199-.2409929-.82191-.4740845-1.206931-.4108732z" fill="#000" opacity=".1"/><path d="m159.870437 87.0104984c-.770054.1284137-1.580007.5235328-1.841346 1.2525275-.093668.320528-.128798.6550419-.103738.9877978-.023911.467756.055753.9350324.23341 1.3690876.131263.2395702.287739.4647229.46682.6717024 1.843341 2.339105 2.769001 5.2768155 4.564463 7.6534568.159597.2094131.45086.4820452.361087.7289947-.03262.0640665-.061267.1300419-.085783.1975595-.01658.1297183.032716.2591593.131667.3457293.095715.086923.170094.194367.217451.31412.033914.124462-.049874.286461-.179547.276583.215456.659849.875787 1.04509 1.502203 1.357234 1.041368.519582 2.194454.92853 3.353524.815921.21745-.863335.520684-1.839279.398992-2.718419-.127356-.6713726-.352475-1.3208753-.668311-1.9281815l-.780029-1.6871585c-.66432-1.4402091-1.334626-2.8902962-2.260286-4.18036-.333899-.4088212-.614718-.857488-.835888-1.3355025-.2374-.6084834-.889751-1.0371876-1.284752-1.5607204-.586518-.7902382-1.196975-1.5804763-1.982988-2.1514234-.315203-.2390471-.821923-.4721673-1.206949-.4089483z" fill="#6c63ff"/><path d="m158.240002 70.9883479c-.5243.0456502-1.063633.0951047-1.537195.3271603-.473561.2320556-.877591.6885584-.892625 1.2211451 0 .3100415.112753.6181809.073289.9244182-.065772.5097614-.533696.8540406-.774235 1.3048372-.420943.7836632-.093961 1.780361.451011 2.4727236.544971.6923626 1.283501 1.2249492 1.843506 1.9135076.893831 1.1139877 1.265504 2.5660345 1.018533 3.9791829-.069509.271368-.103002.550897-.099598.8312156.043221.4983489.375842.9111035.706583 1.2915225 1.608889 1.9042826 3.097666 3.9092567 4.45749 6.0030121.407982.6081268.774647 1.2436236 1.097459 1.902095.319466.6809501.563764 1.4075504 1.007258 2.0105145.409427.5177113.911061.9531955 1.478939 1.2839142 1.432405.8940944 3.057045 1.4246168 4.735613 1.5464033l-.967794-2.4289754c-.171008-.4317756-.347654-.8863763-.291278-1.3485854.107116-.8749637.97907-1.4493965 1.262831-2.2825141.187921-.5363908.103356-1.1279424-.050739-1.6738437-.342017-1.2306555-1.02605-2.3376748-1.394375-3.5607219-.322938-1.0723899-.394995-2.2061148-.210472-3.3115476.080806-.4869363.212351-.9757747.152216-1.4646132-.178525-1.4874383-1.901762-2.1988219-2.698547-3.4599109-.514904-.8102925-.614502-1.8088924-.78739-2.7561358-.249935-1.3828231-.695308-2.7637441-1.555987-3.8669593-.860679-1.1032151-2.187402-1.902095-3.570502-1.8431301-.740409.0285314-1.448872.2891185-2.146059.5439992l-1.81156.6676354" fill="#3f3d56"/><g fill="#000" opacity=".1" transform="translate(154.917513 73)"><path d="m12.0326087.675c.1623913.86346154.2641304 1.76923077.675 2.54038462-.0567391-.3-.1036957-.60192308-.1604348-.89807693-.132868-.75383687-.3439704-1.49230858-.63-2.20384615.0489131.18653846.0821739.37307692.1154348.56153846z"/><path d="m15.5034783 8.44038462c-.1910605 1.11831992-.116058 2.26493628.2191304 3.34999998.0919565.2942308.1956522.5769231.3208696.8653846-.1629643-.8494899-.1715755-1.720635-.0254348-2.5730769.0841304-.49230768.2210869-.98653845.1584782-1.48076922-.057624-.42348547-.2337282-.82293288-.5086956-1.15384616-.0293478.33461539-.1076087.66346154-.1643478.9923077z"/><path d="m17.688913 17.0307692c-.1084-.3613224-.2390764-.7158242-.3913043-1.0615384.0658254.3710351.0403324.7521676-.0743478 1.1115384-.2954348.8403846-1.2052174 1.423077-1.3147826 2.3076923-.0586957.4673077.1232608.9269231.3032608 1.3634616.0665218.1634615.1330435.3288461.1956522.4923077-.0048814-.071073-.0048814-.1423886 0-.2134616.1115217-.8846154 1.0193478-1.4653846 1.3147826-2.3076923.2113044-.5423077.1271739-1.1403846-.0332609-1.6923077z"/><path d="m12.2947826 21.6442308c-.5911693-.3352713-1.1133928-.7761715-1.5397826-1.3-.4636957-.6096154-.7180435-1.3461539-1.05065217-2.0326923-.33558768-.6660027-.71735714-1.3085429-1.1426087-1.923077-1.41523633-2.1173389-2.96460111-4.1450622-4.63891304-6.0711538-.06065218-.0673077-.11934783-.1365385-.17804348-.2057692-.04035847.1778665-.05550186.3603638-.045.5423077.045.5038461.39130435.9211538.73565217 1.3057692 1.67507759 1.9252886 3.22510335 3.9523794 4.64086957 6.0692308.42476607.614835.80651576 1.2573419 1.14260865 1.9230769.3326087.6884615.5869566 1.4230769 1.0486957 2.0326923.4262707.523422.9485416.96371 1.5397826 1.2980769 1.4913334.9039571 3.1828106 1.4403316 4.9304348 1.5634615l-.6847826-1.6538461c-1.6870018-.145226-3.316269-.6753002-4.7582609-1.5480769z"/><path d="m2.22847826 4.15384615c-.58695652-.69615384-1.35195652-1.225-1.91934783-1.9326923-.05086956-.06538462-.0997826-.13269231-.14869565-.20384616-.0116691.67312655.22379654 1.3278508.66326087 1.84423077.56739131.70961539 1.33630435 1.23846154 1.91934783 1.93461539.22762839.27037499.4244534.56443492.58695652.87692307-.12115764-.924229-.50267966-1.79678736-1.10152174-2.51923077z"/></g><path d="m81.6956912 57.6821442-1.4102904-1.4546075c-.1406435-.1456161-.3321879-.2275367-.5320199-.2275367-.1998319 0-.3913764.0819206-.5320199.2275367l-8.8566236 9.0010077-3.7465093-3.8709721c-.2916961-.2991476-.7645628-.2991476-1.0562589 0l-1.4258522 1.4466262c-.2914724.302393-.2914724.7890615 0 1.0914545l5.6897922 5.8802859c.2941335.2987481.7679611.2987481 1.0620946 0l10.8076874-11.0023402c.1419585-.1442671.2218215-.3407467.2218215-.5457272 0-.2049806-.079863-.4014602-.2218215-.5457273z" fill="#3acc6c"/><path d="m120.695691 57.6821442-1.41029-1.4546075c-.140644-.1456161-.332188-.2275367-.53202-.2275367s-.391377.0819206-.53202.2275367l-8.856624 9.0010077-3.746509-3.8709721c-.291696-.2991476-.764563-.2991476-1.056259 0l-1.425852 1.4466262c-.291472.302393-.291472.7890615 0 1.0914545l5.689792 5.8802859c.294134.2987481.767961.2987481 1.062095 0l10.807687-11.0023402c.141959-.1442671.221822-.3407467.221822-.5457272 0-.2049806-.079863-.4014602-.221822-.5457273z" fill="#3acc6c"/></g></g></svg>